# xmcd
#
# Track frame offsets: 
#        182
#        18930
#        47515
#        67015
#
# Disc length: 1119 seconds
#
# Revision: 2
# Processed by: cddbd v1.4PL0 Copyright (c) Steve Scherf et al.
# Submitted via: ExactAudioCopy v0.90b4
#
DISCID=2b045d04
DTITLE=PM Dawn - Looking Through Patient Eyes
DYEAR=1900
DGENRE=
TTITLE0=Looking Through Patient Eyes (Radio Mix)
TTITLE1=Looking Through Patient Eyes (Extended Mix)
TTITLE2=Looking Through Patient Eyes (Instrumental)
TTITLE3=Plastic (Radio Mix)
EXTD=
EXTT0=
EXTT1=
EXTT2=
EXTT3=
PLAYORDER=
